<svg width="483" height="177" viewBox="0 0 483 177" fill="none" xmlns="http://www.w3.org/2000/svg">
<path d="M382.432 34.3583C382.395 34.3859 382.367 48.1403 382.367 64.9184V95.4141H384.991H387.615L387.597 64.8723L387.569 34.3398L385.028 34.3122C383.638 34.303 382.468 34.3214 382.432 34.3583Z" fill="#848586"/>
<path d="M163.332 41.5766C157.762 42.1021 152.836 44.4713 148.923 48.4999C143.39 54.2063 141.134 62.1621 142.791 70.0902C143.74 74.6351 146.005 78.7559 149.301 81.9548C153.932 86.4443 159.935 88.6015 166.766 88.2235C173.469 87.8548 178.478 85.7068 182.243 81.586C184.95 78.6268 186.654 74.7273 187.317 69.9612C187.399 69.362 187.491 67.9054 187.519 66.5779L187.574 64.2548H175.587H163.608V66.7438V69.2329H172.567H181.525L181.452 69.8966C180.706 76.5341 176.305 81.1804 169.501 82.5448C164.225 83.6049 159.382 82.6831 155.423 79.8529C149.209 75.4095 146.493 66.7346 148.979 59.2306C151.041 53.0171 156.068 48.3985 162.181 47.1079C163.516 46.8313 165.901 46.7576 167.273 46.9604C170.293 47.4121 172.981 48.6013 175.393 50.5557C176.213 51.2195 177.511 52.5101 178.008 53.1646L178.367 53.6348L179.389 52.9802C181.065 51.9109 183.265 50.5004 183.302 50.4635C183.367 50.399 182.032 48.8963 181.175 48.0759C177.603 44.6281 173.257 42.4709 168.47 41.761C167.043 41.549 164.584 41.4568 163.332 41.5766Z" fill="#848586"/>
<path d="M224.928 41.5859C219.643 42.222 215.012 44.4714 211.393 48.1404C206.063 53.5334 203.715 61.3048 205.05 69.1592C205.593 72.3489 206.836 75.5017 208.613 78.1843C212.305 83.7432 217.894 87.2003 224.652 88.0945C226.033 88.2789 228.979 88.2973 230.314 88.1406C236.298 87.4123 241.362 84.7665 245.073 80.4337C252.227 72.0815 252.613 59.2859 245.993 50.4359C245.137 49.3112 243.277 47.3845 242.127 46.4626C239.051 43.9735 235.636 42.4617 231.52 41.7518C230.627 41.5951 229.918 41.549 228.012 41.5306C226.696 41.5121 225.305 41.5398 224.928 41.5859ZM229.237 46.8406C233.002 47.2554 236.335 48.8318 239.143 51.5329C244.299 56.4926 246.15 63.9506 243.894 70.7079C241.003 79.3643 232.533 84.4992 224.2 82.637C222.203 82.1945 219.919 81.162 218.216 79.9451C216.43 78.6729 214.321 76.3867 213.152 74.4415C210.372 69.8414 209.736 64.2548 211.393 59.1753C213.99 51.2471 221.576 45.9924 229.237 46.8406Z" fill="#848586"/>
<path d="M35.8338 64.8723L35.8615 87.3477H51.6975H67.5336V84.8586V82.3695L54.6254 82.3419L41.7079 82.3234V74.9484V67.5734H53.1246H64.5413V65.0844V62.5953H53.1246H41.7079V54.8977V47.2H54.6438H67.5796V44.8031V42.4063H51.6975H35.8154L35.8338 64.8723Z" fill="#848586"/>
<path d="M89.3086 64.9V87.3938H92.2088H95.109V79.7883V72.1829H100.845H106.572L112.05 79.7699L117.537 87.3477L120.962 87.3754C122.85 87.3846 124.387 87.3754 124.387 87.3477C124.387 87.3108 121.819 83.8261 118.679 79.604C115.539 75.3725 112.971 71.8879 112.971 71.8694C112.971 71.851 113.274 71.7404 113.643 71.6297C118.697 70.1271 122.049 66.7807 123.319 61.9408C123.761 60.2999 123.863 59.3688 123.863 57.3407C123.863 55.8196 123.826 55.2388 123.669 54.3722C122.555 48.2694 118.495 44.0565 112.372 42.6736L111.451 42.4616L100.385 42.434L89.3086 42.3971V64.9ZM110.577 47.4213C114.379 48.251 116.792 50.6294 117.804 54.5474C118.578 57.525 118.09 61.0927 116.607 63.3329C116.119 64.0704 114.95 65.2043 114.241 65.6191C113.403 66.1169 112.317 66.5502 111.249 66.8083L110.255 67.0572L102.686 67.0849L95.109 67.1218V57.1563V47.1908L102.502 47.2277C108.892 47.2646 109.978 47.283 110.577 47.4213Z" fill="#848586"/>
<path d="M270.52 64.8723L270.548 87.3477H286.016H301.484V84.9508V82.5539L288.944 82.5263L276.394 82.5078V62.457V42.4063H273.448H270.502L270.52 64.8723Z" fill="#848586"/>
<path d="M327.227 64.771C321.187 77.078 316.225 87.2002 316.197 87.274C316.16 87.3754 316.694 87.3938 319.438 87.3754L322.734 87.3477L324.686 83.1532C325.763 80.8485 326.684 78.9125 326.73 78.8665C326.767 78.8111 329.51 73.0679 332.825 66.0985C336.13 59.1291 338.865 53.395 338.902 53.3582C338.948 53.3029 347.022 70.3668 352.924 83.0057C353.918 85.1444 354.793 86.9974 354.876 87.1357L355.014 87.3938H358.292C360.087 87.3938 361.56 87.3661 361.56 87.3293C361.56 87.2832 356.607 77.161 350.548 64.8355L339.528 42.4063H338.874H338.22L327.227 64.771Z" fill="#848586"/>
<path d="M411.572 64.8724L411.6 87.3478L414.472 87.3754L417.354 87.3939L417.373 71.2887L417.4 55.1835L432.914 71.2703L448.428 87.3478L448.953 87.3754L449.487 87.4031V64.9001V42.4064H446.586H443.686L443.668 58.3271L443.64 74.2387L428.228 58.3271L412.824 42.4064H412.189H411.554L411.572 64.8724Z" fill="#848586"/>
<path d="M127.057 128.417V144.006L127.775 143.978L128.484 143.951L128.511 128.39L128.53 112.838H127.793H127.057V128.417Z" fill="#848586"/>
<path d="M286.522 128.417V144.006L287.241 143.978L287.95 143.951L287.977 128.39L287.996 112.838H287.259H286.522V128.417Z" fill="#848586"/>
<path d="M92.4384 120.683C91.5545 120.775 90.4405 121.125 89.6763 121.568C89.3264 121.77 88.7095 122.277 88.2032 122.794C87.4574 123.531 87.2548 123.808 86.8866 124.545C86.2329 125.854 86.0487 126.702 86.104 128.187C86.1408 129.219 86.1868 129.505 86.4446 130.261C87.5218 133.441 90.4036 135.35 93.7734 135.11C95.6885 134.981 97.0419 134.409 98.202 133.257C99.4265 132.031 99.9605 130.74 100.053 128.758L100.108 127.68H96.3606H92.6225V128.463V129.247H95.3846H98.1467V129.45C98.1467 129.837 97.8981 130.602 97.5851 131.174C96.8485 132.566 95.2373 133.395 93.267 133.395C91.6742 133.395 90.4681 132.897 89.4553 131.828C87.0983 129.321 87.531 125.154 90.3392 123.236C92.3739 121.863 94.9703 122.111 96.7104 123.854L97.2721 124.416L98.0363 123.928L98.8004 123.439L98.5058 123.079C97.935 122.36 96.7473 121.531 95.7529 121.144C94.6573 120.719 93.6077 120.572 92.4384 120.683Z" fill="#848586"/>
<path d="M185.751 120.673C182.787 121.144 180.54 123.245 179.859 126.205C179.629 127.191 179.647 128.795 179.896 129.745C180.513 132.077 182.069 133.838 184.251 134.658C188.366 136.216 192.859 133.773 193.78 129.496C193.964 128.611 193.955 127.071 193.762 126.205C193.679 125.827 193.403 125.08 193.145 124.545C192.73 123.679 192.592 123.485 191.791 122.692C191.018 121.927 190.779 121.743 190.024 121.383C189.545 121.153 188.891 120.904 188.55 120.821C187.786 120.636 186.46 120.563 185.751 120.673ZM188.007 122.471C189.913 122.978 191.451 124.61 191.929 126.619C192.141 127.523 192.067 128.887 191.754 129.726C190.926 132.003 189.029 133.423 186.819 133.423C184.426 133.432 182.345 131.745 181.71 129.274C181.525 128.565 181.516 127.154 181.7 126.481C182.198 124.61 183.781 122.95 185.531 122.48C186.175 122.305 187.372 122.296 188.007 122.471Z" fill="#848586"/>
<path d="M249.28 120.683C245.597 121.254 243.093 124.398 243.277 128.224C243.369 130.27 243.958 131.625 245.367 133.036C246.048 133.718 246.407 133.995 246.978 134.299C248.838 135.248 250.882 135.387 252.834 134.695C254.979 133.93 256.646 132.105 257.263 129.809C257.52 128.86 257.539 126.998 257.299 126.066C256.48 122.914 253.893 120.793 250.67 120.637C250.21 120.609 249.584 120.627 249.28 120.683ZM251.573 122.471C252.963 122.84 254.261 123.882 254.924 125.172C255.375 126.048 255.476 126.352 255.578 127.2C255.854 129.385 254.74 131.671 252.871 132.759C251.702 133.441 250.072 133.626 248.866 133.211C247.07 132.603 245.671 131.026 245.22 129.109C245.026 128.251 245.082 126.933 245.358 126.113C245.956 124.361 247.42 122.932 249.105 122.471C249.722 122.305 250.928 122.305 251.573 122.471Z" fill="#848586"/>
<path d="M336.047 120.683C333.202 120.913 330.661 123.135 329.878 126.076C329.602 127.099 329.602 128.731 329.878 129.754C330.808 133.211 333.727 135.322 337.299 135.11C340.733 134.907 342.998 132.971 343.56 129.754C343.633 129.311 343.698 128.657 343.698 128.316V127.68H339.969H336.24V128.463V129.247H339.011H341.783L341.718 129.634C341.313 132.105 339.361 133.506 336.498 133.377C335.329 133.321 334.758 133.137 333.846 132.519C332.585 131.671 331.747 130.242 331.554 128.592C331.333 126.804 331.894 125.209 333.202 123.891C335.218 121.863 338.118 121.807 340.19 123.771C340.54 124.093 340.853 124.361 340.88 124.361C340.917 124.361 341.276 124.149 341.681 123.891L342.427 123.411L341.884 122.867C340.264 121.217 338.349 120.498 336.047 120.683Z" fill="#848586"/>
<path d="M352.758 120.673C349.093 121.19 346.442 124.518 346.681 128.325C346.966 132.98 351.165 136.041 355.695 134.879C357.72 134.354 359.589 132.695 360.39 130.694C361.016 129.127 361.081 127.173 360.565 125.578C359.626 122.683 357.186 120.802 354.166 120.637C353.706 120.618 353.071 120.627 352.758 120.673ZM355.492 122.628C357.186 123.255 358.549 124.868 358.936 126.712C359.644 130.086 357.085 133.432 353.78 133.432C350.52 133.432 347.952 130.15 348.614 126.85C349.056 124.674 350.52 123.043 352.546 122.471C353.292 122.259 354.71 122.342 355.492 122.628Z" fill="#848586"/>
<path d="M386.372 120.683C383.527 121.097 381.281 123.135 380.517 125.983C380.241 127.007 380.241 128.721 380.517 129.754C381.226 132.4 383.058 134.253 385.636 134.926C386.603 135.175 388.352 135.156 389.309 134.889C391.722 134.197 393.489 132.446 394.263 129.984C394.447 129.376 394.475 129.118 394.465 127.818C394.465 126.472 394.447 126.278 394.217 125.605C393.812 124.407 393.296 123.577 392.412 122.702C391.519 121.817 390.875 121.402 389.825 121.033C388.674 120.627 387.56 120.507 386.372 120.683ZM388.628 122.471C390.856 123.061 392.513 125.145 392.652 127.541C392.744 129.256 392.21 130.667 390.985 131.874C390.092 132.768 389.328 133.165 388.186 133.368C385.258 133.875 382.496 131.579 382.146 128.362C382.027 127.274 382.395 125.808 383.039 124.794C383.73 123.716 384.964 122.803 386.151 122.48C386.796 122.305 387.993 122.296 388.628 122.471Z" fill="#848586"/>
<path d="M429.618 120.692C428.688 120.766 428.007 120.959 427.16 121.383C425.447 122.241 424.269 123.624 423.597 125.559C423.311 126.398 423.302 126.5 423.293 127.818C423.293 129.376 423.403 129.938 423.937 131.063C424.794 132.879 426.193 134.133 428.09 134.778C428.964 135.082 429.057 135.092 430.382 135.092C431.966 135.101 432.749 134.935 433.853 134.345C434.553 133.976 435.557 133.1 436.026 132.446C436.376 131.957 436.422 132.022 435.363 131.524L434.719 131.22L434.074 131.874C433.016 132.934 431.902 133.395 430.382 133.395C429.434 133.395 428.651 133.211 427.906 132.815C425.005 131.266 424.204 127.117 426.267 124.361C428.246 121.734 432.279 121.678 434.415 124.25L434.664 124.564L435.492 124.214C435.953 124.029 436.321 123.845 436.321 123.817C436.321 123.67 435.336 122.563 434.848 122.167C434.222 121.66 433.209 121.134 432.445 120.913C431.745 120.71 430.548 120.618 429.618 120.692Z" fill="#848586"/>
<path d="M68.5008 120.802C66.8711 121.153 65.7663 121.927 65.2139 123.116C64.9837 123.614 64.9561 123.771 64.9561 124.637C64.9561 125.744 65.1034 126.186 65.6834 126.832C66.4752 127.698 67.3683 128.067 69.9923 128.592C72.0178 128.998 72.6439 129.21 73.1779 129.662C73.9053 130.289 74.0342 131.312 73.5002 132.188C72.9477 133.073 72.027 133.441 70.4342 133.432C68.8506 133.423 67.5616 133.036 66.4752 132.252L66.0241 131.93L65.5085 132.575C64.9192 133.312 64.8824 133.192 65.8123 133.819C66.5028 134.29 67.3683 134.658 68.2982 134.889C69.3662 135.156 71.5575 135.175 72.4506 134.926C73.85 134.538 74.7523 133.856 75.2863 132.768C75.6178 132.095 75.6362 132.031 75.6362 131.146C75.6362 129.957 75.4613 129.422 74.8352 128.74C74.0434 127.873 73.2332 127.523 70.8485 127.034C68.3258 126.509 67.2762 126.03 66.9171 125.218C66.6225 124.545 66.7883 123.799 67.3591 123.218C68.5284 122.056 71.2444 122.056 73.2147 123.209C73.5186 123.384 73.7948 123.531 73.8316 123.531C73.8684 123.531 74.0986 123.236 74.3472 122.867L74.7799 122.213L74.5682 122.038C74.1907 121.743 72.7176 121.07 72.0915 120.904C71.2721 120.701 69.2741 120.637 68.5008 120.802Z" fill="#848586"/>
<path d="M442.95 120.802C441.32 121.153 440.215 121.936 439.645 123.153C439.433 123.605 439.405 123.789 439.405 124.637C439.405 125.744 439.553 126.186 440.133 126.832C440.924 127.698 441.818 128.067 444.442 128.592C446.467 128.998 447.093 129.21 447.627 129.662C448.354 130.289 448.483 131.312 447.949 132.188C447.397 133.073 446.476 133.441 444.883 133.432C443.3 133.423 442.011 133.036 440.924 132.252L440.473 131.93L439.958 132.575C439.368 133.312 439.332 133.192 440.262 133.819C440.952 134.29 441.818 134.658 442.747 134.889C443.815 135.156 446.007 135.175 446.9 134.926C448.299 134.538 449.202 133.856 449.736 132.768C450.067 132.095 450.085 132.031 450.085 131.146C450.085 129.957 449.91 129.422 449.284 128.74C448.493 127.873 447.682 127.523 445.298 127.034C442.775 126.509 441.725 126.03 441.366 125.218C440.961 124.296 441.422 123.292 442.49 122.748C443.834 122.065 446.08 122.268 447.673 123.218C447.968 123.393 448.244 123.531 448.281 123.531C448.327 123.531 448.548 123.236 448.796 122.867L449.229 122.213L449.017 122.038C448.64 121.743 447.167 121.07 446.541 120.904C445.721 120.701 443.723 120.637 442.95 120.802Z" fill="#848586"/>
<path d="M35.8612 120.959C35.8335 121.033 35.8243 124.177 35.8335 127.956L35.8612 134.824H39.0836C42.8032 134.824 43.1715 134.778 44.5894 134.059C46.1546 133.275 47.3055 131.828 47.8027 130.012C48.0697 129.026 48.0881 126.832 47.8395 125.882C47.195 123.421 45.5653 121.77 43.1347 121.125C42.4626 120.941 42.1035 120.922 39.1573 120.876C36.478 120.849 35.898 120.858 35.8612 120.959ZM42.5731 122.702C43.5122 122.941 44.1198 123.282 44.7551 123.9C45.7127 124.84 46.127 126.057 46.127 127.855C46.127 128.445 46.0625 129.201 45.9889 129.542C45.6022 131.376 44.4421 132.575 42.5823 133.082C42.1864 133.183 41.4406 133.239 39.8938 133.275L37.7486 133.331V127.919V122.517H39.8018C41.5511 122.517 41.9654 122.545 42.5731 122.702Z" fill="#848586"/>
<path d="M51.6971 120.968C51.6695 121.033 51.6603 124.177 51.6695 127.956L51.6971 134.824L56.6044 134.852L61.5026 134.87V134.041V133.211H57.5435H53.5845V130.998V128.786H57.0832H60.5819V127.956V127.127H57.0832H53.5845V124.776V122.425H57.5435H61.5026V121.641V120.858H56.6228C52.8019 120.858 51.7247 120.886 51.6971 120.968Z" fill="#848586"/>
<path d="M79.9627 120.968C79.9351 121.033 79.9259 124.177 79.9351 127.956L79.9627 134.824H80.8834H81.8041V127.864V120.904L80.9018 120.876C80.2389 120.858 79.9903 120.885 79.9627 120.968Z" fill="#848586"/>
<path d="M103.855 127.864V134.88L104.758 134.852L105.651 134.824L105.697 129.911L105.743 124.997L110.485 129.911C113.587 133.119 115.3 134.824 115.41 134.824C115.594 134.824 115.594 134.723 115.594 127.864V120.904L114.701 120.876L113.799 120.849L113.781 125.781L113.753 130.722L108.984 125.79C105.927 122.628 104.15 120.858 104.03 120.858C103.855 120.858 103.855 121.005 103.855 127.864Z" fill="#848586"/>
<path d="M140.269 120.968C140.242 121.033 140.233 124.177 140.242 127.956L140.269 134.824H141.19H142.111V127.864V120.904L141.208 120.876C140.546 120.858 140.297 120.885 140.269 120.968Z" fill="#848586"/>
<path d="M147.726 120.969C147.699 121.033 147.69 124.177 147.699 127.956L147.726 134.824L148.619 134.852L149.522 134.88L149.54 129.92L149.568 124.969L154.346 129.92C157.302 132.99 159.189 134.87 159.29 134.87C159.456 134.87 159.465 134.649 159.465 127.864V120.858H158.545H157.624L157.606 125.772L157.578 130.685L152.836 125.781C150.203 123.052 148.021 120.867 147.929 120.867C147.837 120.858 147.745 120.913 147.726 120.969Z" fill="#848586"/>
<path d="M164.115 120.969C164.087 121.033 164.078 124.177 164.087 127.956L164.115 134.824L165.008 134.852L165.91 134.88L165.929 129.911L165.956 124.942L170.744 129.911C173.543 132.815 175.596 134.87 175.688 134.87C175.845 134.87 175.854 134.529 175.854 127.864V120.849L174.961 120.876L174.059 120.904L174.013 125.781L173.967 130.667L169.243 125.781C166.647 123.098 164.437 120.895 164.336 120.876C164.244 120.858 164.143 120.904 164.115 120.969Z" fill="#848586"/>
<path d="M195.667 121.024C195.695 121.116 197.095 124.269 198.789 128.03C201.468 134.013 201.882 134.87 202.048 134.87C202.223 134.87 202.646 133.995 205.39 127.919C207.121 124.103 208.539 120.95 208.539 120.913C208.539 120.876 208.078 120.867 207.508 120.876L206.476 120.904L204.304 125.854C203.107 128.583 202.103 130.833 202.075 130.86C202.057 130.888 201.063 128.694 199.884 126.002C198.706 123.301 197.693 121.033 197.647 120.968C197.592 120.895 197.26 120.858 196.597 120.858C195.704 120.858 195.631 120.867 195.667 121.024Z" fill="#848586"/>
<path d="M212.084 127.744C210.224 131.533 208.677 134.686 208.659 134.751C208.622 134.843 208.852 134.87 209.644 134.87H210.666L211.301 133.534L211.937 132.197H215.656H219.376L220.002 133.534L220.628 134.88L221.632 134.852C222.175 134.834 222.635 134.787 222.635 134.751C222.644 134.704 221.125 131.57 219.256 127.763C216.347 121.854 215.831 120.858 215.666 120.858C215.5 120.858 214.984 121.844 212.084 127.744ZM217.148 127.486C217.93 129.173 218.575 130.574 218.575 130.593C218.575 130.611 217.268 130.63 215.666 130.63C212.931 130.63 212.756 130.621 212.821 130.473C212.94 130.141 215.675 124.37 215.693 124.389C215.702 124.407 216.356 125.799 217.148 127.486Z" fill="#848586"/>
<path d="M223.271 121.642V122.425H225.388H227.506V128.648V134.88L228.408 134.852L229.301 134.824L229.329 128.62L229.347 122.425H231.419H233.49V121.642V120.858H228.38H223.271V121.642Z" fill="#848586"/>
<path d="M237.081 127.864V134.87H238.002H238.922V127.864V120.858H238.002H237.081V127.864Z" fill="#848586"/>
<path d="M261.295 127.864V134.88L262.197 134.852L263.09 134.824L263.136 129.911L263.182 124.997L267.924 129.911C271.027 133.119 272.739 134.824 272.85 134.824C273.034 134.824 273.034 134.723 273.034 127.864V120.904L272.141 120.876L271.238 120.849L271.22 125.781L271.192 130.722L266.423 125.79C263.367 122.628 261.59 120.858 261.47 120.858C261.295 120.858 261.295 121.005 261.295 127.864Z" fill="#848586"/>
<path d="M301.346 127.864V134.87L306.253 134.852L311.151 134.824V134.041V133.257L307.174 133.229L303.187 133.211V130.998V128.786L306.713 128.768L310.23 128.74V127.956V127.173L306.713 127.145L303.187 127.127V124.776V122.425H307.192H311.206L311.179 121.66L311.151 120.904L306.253 120.876L301.346 120.858V127.864Z" fill="#848586"/>
<path d="M315.57 120.968C315.543 121.033 315.533 124.177 315.543 127.956L315.57 134.824H316.491H317.412L317.439 132.492L317.458 130.169H319.188H320.91L322.614 132.52L324.308 134.87H325.348C325.919 134.87 326.388 134.833 326.388 134.787C326.388 134.741 325.643 133.7 324.722 132.473C323.81 131.238 323.037 130.178 323.019 130.123C322.991 130.058 323.138 129.966 323.396 129.892C323.884 129.754 324.75 129.219 325.118 128.823C325.864 128.021 326.296 126.813 326.296 125.541C326.296 123.43 325.118 121.761 323.175 121.116C322.604 120.922 322.365 120.913 319.087 120.876C316.27 120.849 315.607 120.867 315.57 120.968ZM322.632 122.646C323.267 122.886 323.829 123.421 324.142 124.103C324.381 124.619 324.409 124.785 324.409 125.606C324.409 126.371 324.372 126.601 324.197 126.988C323.921 127.588 323.525 127.984 322.945 128.251C322.494 128.454 322.365 128.463 319.971 128.491L317.458 128.519V125.467V122.407L319.833 122.443C321.794 122.48 322.273 122.517 322.632 122.646Z" fill="#848586"/>
<path d="M364.736 120.969C364.709 121.033 364.699 124.177 364.709 127.956L364.736 134.824L365.629 134.852L366.532 134.88L366.55 129.92L366.578 124.969L371.356 129.92C374.256 132.925 376.199 134.87 376.309 134.87C376.466 134.87 376.475 134.603 376.475 127.864V120.849L375.582 120.876L374.68 120.904L374.634 125.79L374.588 130.676L369.846 125.772C367.185 123.024 365.031 120.867 364.939 120.867C364.847 120.858 364.755 120.913 364.736 120.969Z" fill="#848586"/>
<path d="M398.342 120.969C398.314 121.033 398.305 124.177 398.314 127.956L398.342 134.824L399.235 134.852L400.137 134.88L400.155 130.243L400.183 125.606L402.669 128.758C404.041 130.492 405.182 131.911 405.21 131.911C405.238 131.92 406.37 130.519 407.742 128.814L410.219 125.707L410.265 130.27L410.311 134.824L411.213 134.852L412.106 134.88V127.864C412.106 121.254 412.097 120.858 411.95 120.858C411.848 120.867 410.523 122.416 408.525 124.877C406.738 127.081 405.238 128.878 405.201 128.86C405.155 128.841 403.663 127.034 401.886 124.84C400.109 122.656 398.59 120.858 398.517 120.858C398.443 120.858 398.36 120.913 398.342 120.969Z" fill="#848586"/>
<path d="M417.17 127.864V134.88L418.072 134.852L418.965 134.824V127.864V120.904L418.072 120.876L417.17 120.849V127.864Z" fill="#848586"/>
</svg>
