<svg width="356" height="79" viewBox="0 0 356 79" fill="none" xmlns="http://www.w3.org/2000/svg">
<mask id="mask0_111_58" style="mask-type:luminance" maskUnits="userSpaceOnUse" x="0" y="0" width="356" height="79">
<path d="M356 0.877686H0V78.1221H356V0.877686Z" fill="white"/>
</mask>
<g mask="url(#mask0_111_58)">
<path d="M291.496 48.9872C291.496 39.6996 294.188 32.877 299.57 28.519C305.024 24.0896 312.629 21.8748 322.39 21.8748C327.197 21.8748 331.468 22.4107 335.199 23.4823C339.003 24.4825 342.197 26.09 344.78 28.3047C347.363 30.448 349.336 33.2343 350.7 36.6634C352.063 40.0927 352.745 44.2005 352.745 48.9872C352.745 57.989 350.053 64.7402 344.671 69.2412C339.289 73.6705 331.862 75.8851 322.39 75.8851C317.869 75.8851 313.706 75.3493 309.902 74.2776C306.172 73.1347 302.942 71.4559 300.215 69.2412C297.488 66.9548 295.336 64.1331 293.758 60.7752C292.25 57.4174 291.496 53.4879 291.496 48.9872ZM305.383 48.8799C305.383 54.3811 306.818 58.2388 309.688 60.4534C312.629 62.5968 316.865 63.6687 322.39 63.6687C327.629 63.6687 331.683 62.3828 334.554 59.8106C337.423 57.2388 338.859 53.595 338.859 48.8799C338.859 43.9505 337.388 40.2712 334.445 37.8422C331.575 35.4131 327.557 34.1986 322.39 34.1986C317.15 34.1986 312.989 35.4845 309.902 38.0566C306.89 40.557 305.383 44.1649 305.383 48.8799Z" fill="#848586"/>
<path d="M291.013 35.6964H281.11C278.241 35.6964 275.944 36.0537 274.222 36.7682C272.571 37.4825 271.279 38.5185 270.346 39.8759C269.485 41.1618 268.912 42.7336 268.624 44.591C268.41 46.3771 268.301 48.3777 268.301 50.5923V75.8827H253.986V22.4083H268.194V43.3052C268.194 40.1617 268.624 37.304 269.485 34.7319C270.418 32.16 271.639 29.9454 273.145 28.0879C274.725 26.2305 276.482 24.8016 278.42 23.8013C280.43 22.8012 282.51 22.301 284.663 22.301H291.013V35.6964Z" fill="#848586"/>
<path d="M248.618 35.6964H238.715C235.844 35.6964 233.548 36.0537 231.826 36.7682C230.174 37.4825 228.883 38.5185 227.95 39.8759C227.089 41.1618 226.516 42.7336 226.228 44.591C226.013 46.3771 225.906 48.3777 225.906 50.5923V75.8827H211.588V22.4083H225.797V43.3052C225.797 40.1617 226.228 37.304 227.089 34.7319C228.022 32.16 229.243 29.9454 230.749 28.0879C232.328 26.2305 234.087 24.8016 236.024 23.8013C238.032 22.8012 240.114 22.301 242.268 22.301H248.618V35.6964Z" fill="#848586"/>
<path d="M167.438 77.2765C164.782 77.2765 162.163 76.9195 159.58 76.2046C157.068 75.4904 154.771 74.4545 152.691 73.0973C150.681 71.6682 149.031 69.9179 147.739 67.8459C146.519 65.7027 145.909 63.2381 145.909 60.4518C145.909 57.6656 146.591 55.3079 147.954 53.3789C149.318 51.3788 151.076 49.7712 153.229 48.5567C155.381 47.2708 157.75 46.3419 160.333 45.7705C162.988 45.1274 165.536 44.7345 167.976 44.5916L192.41 43.4127V42.0197C192.41 40.0193 191.872 38.4475 190.795 37.3045C189.79 36.09 188.463 35.1613 186.813 34.5182C185.234 33.8753 183.512 33.4825 181.646 33.3395C179.78 33.1252 177.986 33.0179 176.264 33.0179C174.757 33.0179 173.071 33.1252 171.205 33.3395C169.339 33.4825 167.581 33.8753 165.93 34.5182C164.352 35.0898 162.988 35.9471 161.84 37.0901C160.764 38.1619 160.225 39.6622 160.225 41.591H147.201C147.201 37.8761 147.954 34.7684 149.461 32.2678C151.04 29.7673 153.157 27.7669 155.812 26.2668C158.467 24.7665 161.517 23.7305 164.962 23.1589C168.406 22.516 172.03 22.1946 175.834 22.1946C180.569 22.1946 184.803 22.6231 188.535 23.4805C192.338 24.2663 195.532 25.5881 198.115 27.4454C200.698 29.303 202.673 31.732 204.036 34.7326C205.472 37.6617 206.189 41.2339 206.189 45.449V75.7762H192.626V56.7009C192.626 61.1307 191.656 64.7025 189.72 67.4175C187.782 70.0605 185.45 72.1326 182.723 73.6329C180.068 75.0619 177.304 76.0261 174.434 76.5264C171.563 77.0262 169.231 77.2765 167.438 77.2765ZM172.281 67.203C174.147 67.1317 176.227 66.9172 178.525 66.5601C180.892 66.2028 183.118 65.6312 185.199 64.8456C187.279 63.9882 189.038 62.881 190.472 61.5232C191.909 60.166 192.626 58.4157 192.626 56.2724V52.8432L174.111 53.7007C172.963 53.7719 171.563 53.9147 169.913 54.1292C168.334 54.2723 166.792 54.5575 165.285 54.9866C163.849 55.415 162.629 56.0226 161.625 56.8082C160.62 57.5943 160.118 58.6303 160.118 59.916C160.118 61.2732 160.512 62.4165 161.302 63.3453C162.091 64.274 163.096 65.0596 164.316 65.7027C165.536 66.2743 166.827 66.6672 168.191 66.8817C169.626 67.0957 170.99 67.203 172.281 67.203Z" fill="#848586"/>
<path d="M111.467 77.1711C107.018 77.1711 102.999 76.564 99.4107 75.3493C95.8228 74.1348 92.7729 72.3846 90.2615 70.0981C87.7498 67.7408 85.8118 64.8472 84.4485 61.4181C83.0852 57.989 82.4033 54.0595 82.4033 49.6303C82.4033 40.1998 84.879 33.2343 89.8306 28.7334C94.8539 24.161 101.923 21.8748 111.036 21.8748C120.294 21.8748 127.505 24.2325 132.672 28.9475C137.911 33.5913 140.53 40.5212 140.53 49.7374V53.595H95.5357C95.5357 55.5956 95.966 57.3459 96.8273 58.8464C97.6885 60.3462 98.8368 61.5967 100.272 62.5968C101.779 63.5969 103.501 64.3829 105.439 64.9545C107.376 65.4543 109.458 65.7048 111.682 65.7048C115.916 65.7048 119.289 65.026 121.8 63.6687C124.384 62.311 125.963 60.4894 126.537 58.2033H139.669C138.378 64.9187 135.327 69.7768 130.519 72.7776C125.711 75.7066 119.361 77.1711 111.467 77.1711ZM95.428 44.8078L126.859 44.915C126.859 43.0575 126.393 41.4143 125.46 39.9854C124.527 38.5566 123.307 37.3777 121.8 36.449C120.293 35.4489 118.607 34.6987 116.741 34.1986C114.876 33.6986 113.01 33.4484 111.144 33.4484C109.206 33.4484 107.269 33.6628 105.331 34.0915C103.465 34.5202 101.779 35.1989 100.272 36.1276C98.8368 37.0563 97.6526 38.2351 96.7196 39.664C95.8587 41.0928 95.428 42.8075 95.428 44.8078Z" fill="#848586"/>
<path d="M41.3346 13.8444C32.5081 13.8444 25.8342 15.9163 21.3132 20.0599C16.7922 24.2036 14.5317 30.5618 14.5317 39.1349C14.5317 47.3508 16.8281 53.3876 21.4209 57.2458C26.0853 61.1034 32.5081 63.0322 40.6889 63.0322C42.9852 63.0322 45.4608 62.6395 48.1161 61.8536C50.8431 61.068 53.3548 59.9606 55.651 58.5315C58.0194 57.1025 59.9567 55.3522 61.4638 53.2803C63.0425 51.1375 63.8317 48.7438 63.8317 46.1006C63.8317 49.0296 63.4374 52.2447 62.6478 55.7453C61.9303 59.1746 60.6387 62.3892 58.7728 65.39C56.907 68.3907 54.3594 70.8912 51.1302 72.8913C47.9728 74.8919 43.9539 75.892 39.0741 75.892C32.9744 75.892 27.4846 75.0704 22.6049 73.4271C17.7968 71.784 13.7065 69.3907 10.3337 66.2474C6.96085 63.1041 4.37745 59.2104 2.58342 54.5666C0.861136 49.923 0 44.6003 0 38.5991C0 32.0265 1.04054 26.3826 3.12163 21.6673C5.2027 16.8807 8.10905 12.9514 11.8406 9.87938C15.5723 6.80737 19.9497 4.55696 24.973 3.12811C30.0681 1.62783 35.6296 0.877686 41.6576 0.877686C45.9633 0.877686 50.1253 1.37778 54.1439 2.37797C58.1627 3.30672 61.7865 4.807 65.0161 6.87881C68.2452 8.95064 70.9006 11.6297 72.9814 14.9161C75.1342 18.2024 76.462 22.1675 76.9644 26.8111H62.5401C61.8942 24.3107 60.8897 22.2389 59.5264 20.5957C58.1627 18.8811 56.5123 17.5237 54.5748 16.5235C52.709 15.5233 50.6278 14.8446 48.3316 14.4874C46.1071 14.0588 43.7745 13.8444 41.3346 13.8444ZM63.8317 74.8201V46.1006H39.8276V33.8839H76.9644V74.8201H63.8317Z" fill="#848586"/>
</g>
</svg>
