<svg width="266" height="77" viewBox="0 0 266 77" fill="none" xmlns="http://www.w3.org/2000/svg">
<g clip-path="url(#clip0_111_60)">
<path d="M14.8114 0.811745C14.7466 1.03112 11.5296 17.3525 7.66479 37.0741C3.80001 56.7958 0.58297 73.1172 0.518197 73.3146C0.410242 73.6875 0.863651 73.7095 7.94547 73.7095H15.4807L15.9557 71.3622C16.2148 70.0459 17.575 63.1137 18.9784 55.9402L21.5262 42.8875L35.5602 42.8217C48.8818 42.7778 49.6159 42.7998 49.5296 43.1508C49.4864 43.3702 49.0546 45.5639 48.5796 48.0428C48.083 50.5217 46.7659 57.1468 45.6432 62.7627C44.5205 68.4006 43.6137 73.161 43.6137 73.3585C43.6137 73.6656 44.3693 73.7095 51.0193 73.7095H58.425L65.5932 37.2716C69.5227 17.2209 72.6966 0.723999 72.6318 0.636246C72.5671 0.526558 69.2637 0.438812 65.2909 0.438812H58.0796L57.8637 0.921432C57.7557 1.20662 56.8489 5.72571 55.8341 10.9687C54.8193 16.2117 53.5887 22.5297 53.1137 24.9867C52.6387 27.4656 52.25 29.5058 52.25 29.5496C52.25 29.5935 45.9455 29.6155 38.2159 29.6155C30.508 29.6155 24.1818 29.5716 24.1818 29.5277C24.1818 29.4619 25.4557 23.0343 26.9887 15.2246C28.5432 7.41488 29.7955 0.877556 29.7955 0.723999C29.7955 0.504623 28.3705 0.438812 22.3682 0.438812C15.4591 0.438812 14.9193 0.460747 14.8114 0.811745Z" fill="#848586"/>
<path d="M83.0602 0.5923C82.9955 0.701988 83.8159 3.02734 84.8955 5.81338C86.9466 11.188 95.5398 33.7396 96.5114 36.3063C96.8352 37.1399 97.6557 39.2897 98.325 41.0667L99.5773 44.2914L99.1455 45.6735C98.5625 47.4943 98.0875 49.7758 97.9148 51.5527C97.8284 52.3424 96.8568 57.6074 95.7341 63.2672C94.6114 68.9271 93.7045 73.5997 93.7045 73.6216C93.7045 73.6655 97.0511 73.7094 101.153 73.7094H108.624L109.682 74.2578C115.792 77.4168 125.378 77.702 133.842 75.0037C136.541 74.1481 140.643 72.0641 142.845 70.4627C145.328 68.6199 145.285 68.6419 144.94 70.3749C144.789 71.1866 144.594 72.2615 144.53 72.7661L144.378 73.7094H151.849H159.341L159.427 73.2048C159.686 71.9983 160.744 66.6236 162.148 59.3404C162.99 54.9969 163.724 51.2894 163.789 51.092C163.875 50.763 164.782 50.7191 172.144 50.6094C179.399 50.4997 180.673 50.4339 182.724 50.0171C194.297 47.6917 203.106 39.6188 205.891 28.7598C209.281 15.5536 202.803 3.83902 190.54 1.05298C188.726 0.636169 187.69 0.5923 173.764 0.504547L158.909 0.394859L158.693 0.921356C158.585 1.20654 157.074 8.68717 155.347 17.5498C153.619 26.4125 152.13 33.9151 152.043 34.1783C151.892 34.661 151.827 34.639 150.92 33.4763C149.128 31.1949 145.674 28.7379 142.759 27.641C138.894 26.2151 133.41 25.8202 129.545 26.6758L127.71 27.0926L130.388 23.6923C131.856 21.8276 133.173 20.3359 133.302 20.3578C133.432 20.4017 133.475 20.3578 133.389 20.2701C133.194 20.0946 133.82 19.1732 135.159 17.6376C135.699 17.0453 137.361 14.9393 138.873 13.0088C140.384 11.0564 141.744 9.34529 141.917 9.16979C142.306 8.75298 148.438 1.03104 148.632 0.701988C148.761 0.504547 146.991 0.438736 140.082 0.438736L131.381 0.46067L128.25 4.40939C126.523 6.60313 123.824 10.0253 122.248 12.0436C120.693 14.0399 118.923 16.2336 118.361 16.8917C117.778 17.5498 116.03 19.7655 114.432 21.8276C112.834 23.8678 111.431 25.6667 111.323 25.7983C111.193 25.9518 110.545 26.7635 109.898 27.6191C108.818 29.0669 108.71 29.1328 108.538 28.6721C108.451 28.4088 107.156 24.9866 105.688 21.0598C104.219 17.133 102.19 11.7145 101.197 8.99429C100.182 6.27406 99.0375 3.24671 98.6705 2.23759L97.9795 0.438736H90.5739C86.4932 0.438736 83.1034 0.504547 83.0602 0.5923ZM186.049 14.6102C186.826 14.8296 187.906 15.2903 188.445 15.6632C194.383 19.7216 191.77 31.4581 184.063 35.3849C181.558 36.6573 181.148 36.7011 173.569 36.8108L166.531 36.8986L168.539 26.7196C169.661 21.1256 170.676 16.0362 170.806 15.4L171.022 14.2593H177.823C183.415 14.2593 184.861 14.3251 186.049 14.6102ZM133 38.5219C136.282 39.5091 138.376 41.637 139.175 44.7521C139.65 46.6607 139.499 50.0171 138.851 51.9914C137.62 55.633 134.9 58.8578 131.553 60.6128C128.984 61.951 127.71 62.302 124.903 62.4555C121.989 62.6091 120.434 62.3239 118.405 61.3148C115.986 60.1083 114.453 58.09 113.892 55.3698C113.46 53.3077 113.482 51.7721 114 49.6441C114.993 45.4102 117.455 42.1855 121.341 39.9917C122.788 39.18 125.119 38.3903 126.739 38.149C128.423 37.9077 131.597 38.0832 133 38.5219Z" fill="#848586"/>
<path d="M222.386 0.482613C222.365 0.526489 219.126 16.9795 215.175 37.0741L207.985 73.5997L230.008 73.6655C242.121 73.6875 252.074 73.6875 252.117 73.6436C252.182 73.5558 254.773 60.5909 254.773 60.2838C254.773 60.196 248.209 60.1083 240.199 60.1083C232.189 60.1083 225.625 60.0644 225.625 60.0205C225.625 59.9766 226.359 56.2912 227.244 51.8598C228.13 47.4285 228.864 43.6991 228.864 43.6114C228.864 43.5236 234.607 43.414 241.646 43.392L254.427 43.3262L255.68 36.9644C256.349 33.4544 256.867 30.4709 256.824 30.3174C256.759 30.1199 254.039 30.0541 244.193 30.0541C233.182 30.0541 231.671 30.0102 231.671 29.7251C231.671 29.4618 234.154 16.5627 234.585 14.5225L234.693 14.0399H248.727H262.761L262.869 13.5353C263.193 12.0655 265.352 0.877487 265.352 0.680046C265.352 0.504547 259.177 0.438736 243.869 0.438736C232.059 0.438736 222.386 0.460678 222.386 0.482613Z" fill="#848586"/>
</g>
<defs>
<clipPath id="clip0_111_60">
<rect width="266" height="77" fill="white"/>
</clipPath>
</defs>
</svg>
