<svg width="354" height="125" viewBox="0 0 354 125" fill="none" xmlns="http://www.w3.org/2000/svg">
<path d="M11.0808 4.73396C8.70283 10.5032 7.35449 13.8316 7.35449 13.9302C7.35449 14.0042 11.7917 14.0781 17.2341 14.1028L27.0893 14.1768L27.1628 38.2645L27.2118 62.377H33.5858H39.9598V38.2152V14.0535H48.0008H56.0418L57.9785 9.2951C59.0326 6.70634 60.0622 4.19155 60.2339 3.74776L60.5526 2.95881H36.1844H11.8163L11.0808 4.73396Z" fill="#848586"/>
<path d="M95.634 11.3661C93.3786 16.0259 86.8576 29.3641 81.17 41.0012C75.507 52.6383 70.8491 62.2044 70.8491 62.2783C70.8491 62.3276 73.84 62.377 77.4928 62.377H84.1119L89.8239 50.7152C92.9619 44.3296 96.443 37.1551 97.5707 34.8129C98.6984 32.4953 99.7036 30.5722 99.8016 30.5722C99.8997 30.5722 100.022 30.7201 100.071 30.9174C100.12 31.1146 103.552 38.2645 107.72 46.8198L115.32 62.377H122.012C125.69 62.377 128.705 62.303 128.705 62.1797C128.705 62.0811 127.308 59.1718 125.616 55.7201C123.925 52.2685 117.453 39.0042 111.25 26.2576C105.023 13.5111 99.8997 3.03277 99.8752 2.98346C99.8261 2.93415 97.9139 6.70634 95.634 11.3661Z" fill="#848586"/>
<path d="M159.104 32.6679V62.377H165.601H172.097V32.6679V2.95881H165.601H159.104V32.6679Z" fill="#848586"/>
<path d="M202.25 32.6679V62.377H208.624H214.998V46.4253C214.998 36.7606 215.096 30.5722 215.219 30.6955C215.44 30.9174 222.623 44.0338 226.619 51.4549L228.359 54.7093L231.08 54.734H233.802L234.611 53.1807C235.052 52.3424 236.327 49.9756 237.43 47.9539C238.533 45.9075 241.132 41.0998 243.215 37.229L246.991 30.2024L247.113 46.228C247.187 55.0298 247.285 62.2783 247.309 62.303C247.334 62.3523 250.227 62.377 253.732 62.377H260.106V32.6679V2.95881L255.056 3.00812L250.031 3.08208L247.383 8.13632C245.937 10.9223 242.774 16.9628 240.372 21.5732C237.945 26.1837 234.978 31.9036 233.728 34.2704C232.502 36.6373 231.399 38.5604 231.301 38.5357C231.203 38.5111 229.389 35.232 227.281 31.2626C225.148 27.2931 221.299 20.0446 218.7 15.1629C216.102 10.2813 213.577 5.54757 213.086 4.61068L212.204 2.95881H207.227H202.25V32.6679Z" fill="#848586"/>
<path d="M315.217 7.64323C313.918 10.2813 308.107 22.2142 302.273 34.1472C296.438 46.0801 290.971 57.3227 290.113 59.0979L288.569 62.377H295.237H301.93L309.627 46.5732C313.844 37.8947 317.374 30.7448 317.472 30.6955C317.546 30.6462 321.076 37.7468 325.317 46.4746L333.039 62.3523L339.855 62.377H346.645L345.763 60.5772C345.273 59.6156 339.095 46.9923 332.059 32.5446C325.023 18.0969 318.87 5.52291 318.404 4.56137L317.521 2.83553L315.217 7.64323Z" fill="#848586"/>
<path d="M7.59961 77.0464V78.6489L177.196 78.5996L346.768 78.5257L346.841 76.9724L346.915 75.4438H177.245H7.59961V77.0464Z" fill="#848586"/>
<path d="M73.5454 94.4281V96.4004H79.3065H85.0676V109.098V121.795H87.2739H89.4803V109.098V96.4004H95.2414H101.002V94.4281V92.4557H87.2739H73.5454V94.4281Z" fill="#848586"/>
<path d="M104.925 107.125V121.795H107.009H109.093V107.125V92.4557H107.009H104.925V107.125Z" fill="#848586"/>
<path d="M113.015 94.4281V96.4004H118.776H124.537V109.098V121.795H126.744H128.95V109.098V96.4004H134.711H140.472V94.4281V92.4557H126.744H113.015V94.4281Z" fill="#848586"/>
<path d="M148.685 96.2032C147.778 98.2742 145.841 102.638 144.37 105.893C142.924 109.147 140.742 114.053 139.541 116.815L137.334 121.82L139.663 121.746L141.992 121.672L143.733 117.801L145.449 113.905H151.97H158.491L160.207 117.85L161.923 121.77L164.277 121.795H166.655L163.051 113.708C161.065 109.27 158.123 102.687 156.505 99.0632L153.588 92.4557H151.97H150.352L148.685 96.2032ZM153.196 101.282C153.784 103.008 154.887 105.769 155.623 107.446C156.358 109.098 156.898 110.528 156.849 110.602C156.775 110.651 154.52 110.676 151.823 110.651L146.92 110.577L148.219 107.618C148.93 105.991 150.058 103.181 150.695 101.381C151.333 99.6056 151.897 98.1263 151.97 98.1263C152.068 98.1263 152.607 99.5316 153.196 101.282Z" fill="#848586"/>
<path d="M170.381 107.125V121.795H172.587H174.794L174.769 113.585C174.769 109.098 174.647 104.142 174.524 102.589C174.401 101.036 174.352 99.7288 174.401 99.6795C174.45 99.6302 178.52 104.586 183.472 110.7L192.469 121.795H194.43H196.367V107.125V92.4557H194.259H192.15L192.248 103.55C192.322 113.733 192.297 114.596 191.93 114.201C191.709 113.979 189.061 110.725 186.071 107.002C183.055 103.279 179.157 98.4715 177.417 96.3265L174.254 92.4557H172.318H170.381V107.125Z" fill="#848586"/>
<path d="M203.967 107.125V121.795H206.173H208.38V107.125V92.4557H206.173H203.967V107.125Z" fill="#848586"/>
<path d="M215.66 92.6283C215.391 92.8749 215.464 110.626 215.734 112.549C216.567 118.541 221.52 122.288 228.604 122.288C232.723 122.288 235.91 121.179 238.288 118.935C239.514 117.776 240.764 115.681 241.205 114.029C241.377 113.388 241.475 109.221 241.475 102.811L241.499 92.579L239.391 92.505L237.307 92.4311V101.775C237.307 112.056 237.185 113.289 235.984 115.114C234.366 117.53 231.84 118.491 227.746 118.269C223.162 118.047 220.735 116.026 220.147 112.056C220.024 111.095 219.902 106.312 219.902 101.381V92.4557H217.867C216.739 92.4557 215.734 92.5297 215.66 92.6283Z" fill="#848586"/>
<path d="M248.83 107.125V121.795H251.06H253.291L253.193 110.626C253.12 104.512 252.997 99.2851 252.899 99.0385C252.777 98.8166 252.801 98.6194 252.899 98.6194C253.022 98.6194 253.708 99.7042 254.444 101.036C255.155 102.342 257.532 106.336 259.69 109.887C264.25 117.382 264.201 117.332 265.647 114.966C266.137 114.177 267.682 111.637 269.104 109.344C270.526 107.027 272.56 103.6 273.639 101.701L275.6 98.2496L275.453 99.7288C275.355 100.542 275.232 105.843 275.159 111.489L274.987 121.795H277.243H279.474V107.125V92.431L277.12 92.505L274.742 92.5789L272.07 96.8935C270.624 99.2604 268.295 103.057 266.897 105.325C265.524 107.618 264.323 109.468 264.225 109.468C264.152 109.468 261.725 105.646 258.856 100.962L253.659 92.4557H251.232H248.83V107.125Z" fill="#848586"/>
</svg>
