<svg width="177" height="177" viewBox="0 0 177 177" fill="none" xmlns="http://www.w3.org/2000/svg">
<path d="M64.7526 12.9063C44.9876 14.6763 37.9813 17.3313 28.7626 26.5501C17.1838 38.1288 14.5288 49.2651 14.4551 86.2876C14.4551 123.163 17.1838 134.52 28.7626 146.025C39.8251 157.014 48.8963 159.448 82.6001 160.554C97.4238 160.996 121.024 159.374 128.841 157.383C143.591 153.695 156.055 141.084 159.595 126.481C163.578 110.183 163.578 62.3926 159.595 46.0938C156.35 32.7451 145.878 21.1663 132.898 16.4463C122.794 12.7588 87.0251 10.9151 64.7526 12.9063ZM59.0001 49.0438C61.2863 50.2238 63.0563 54.2063 62.2451 56.4926C60.5488 61.1388 55.2388 62.6876 51.3301 59.6638C49.7813 58.4838 49.4126 57.5251 49.4126 54.9438C49.4126 52.2888 49.7813 51.4038 51.6988 49.8551C54.2801 47.6426 55.9763 47.4951 59.0001 49.0438ZM93.5888 59.3688C105.979 61.5076 115.05 64.3838 115.05 66.1538C115.05 67.8501 113.354 67.9238 108.413 66.3751C101.996 64.3101 96.0963 63.0563 88.2788 61.9501C75.5201 60.1801 65.6376 64.0151 65.6376 70.8001C65.6376 78.9863 78.3963 86.5088 102.513 92.5563C113.428 95.2851 115.714 95.5063 116.304 94.0313C116.894 92.3351 114.903 90.7863 106.569 86.7301C99.3413 83.1901 88.2788 79.3551 77.5113 76.6263C70.9476 74.9301 69.0301 73.7501 70.5788 72.2013C71.5376 71.2426 78.9863 73.0126 92.1876 77.3638C106.2 82.0101 113.944 85.9926 119.991 91.5976C124.564 95.8013 124.933 96.0226 127.735 95.6538C130.538 95.2851 133.488 93.4413 133.488 92.0401C133.488 91.6713 132.086 89.9013 130.39 88.0576C124.859 82.0838 100.964 71.9801 85.9188 69.3251C78.6176 67.9976 77.0688 67.4813 77.0688 66.3013C77.0688 65.4901 78.1013 65.2688 81.1988 65.3426C89.1638 65.4901 106.643 70.9476 119.991 77.5113C132.971 83.7801 137.839 88.9426 135.995 94.3263C133.635 101.111 114.46 100.521 91.2288 92.9251C78.2488 88.6476 72.1276 85.4026 66.1538 79.8713C61.2126 75.1513 60.9913 75.0776 58.0413 75.5938C52.6576 76.4788 51.2563 76.4051 51.2563 75.2251C51.2563 73.8976 54.2801 72.3488 58.4101 71.6851C61.2863 71.1688 61.5813 70.9476 61.5813 68.9563V66.7438L57.5251 66.9651C49.7076 67.4813 45.2826 71.3163 47.2001 76.0363C49.7076 82.0101 62.4663 91.5976 77.4376 98.7513C88.8688 104.135 94.9901 105.684 106.348 105.758C114.976 105.831 115.788 105.684 118 104.135C120.139 102.513 122.425 102.365 122.425 103.84C122.425 105.315 118.664 107.823 114.976 108.781C99.0463 113.059 69.3988 102.439 51.0351 85.9188C46.8313 82.0838 45.7251 82.2313 45.7251 86.4351C45.7251 91.3026 49.1176 95.2851 58.7788 101.554C65.7851 106.126 83.4113 114.829 87.0988 115.493C90.3438 116.156 91.4501 117.041 91.4501 119.106C91.4501 122.646 86.5826 123.458 85.1076 120.213C84.6651 119.328 80.1663 116.673 73.2338 113.28C62.0238 107.749 61.9501 107.749 61.9501 109.666C61.9501 110.846 60.9913 112.395 59.3688 114.018L56.7876 116.451L60.6963 118.664C66.0801 121.761 74.9301 124.564 82.0838 125.449C108.708 128.841 134.446 113.428 138.724 91.4501C139.756 86.1401 140.715 84.5176 142.559 85.2551C144.181 85.8451 144.255 90.4176 142.706 95.3588C138.871 108.044 127.809 119.401 113.723 125.08C104.651 128.768 100.595 129.431 88.8688 129.358C78.9863 129.358 77.0688 129.063 71.1688 127.293C58.1888 123.31 48.0851 116.378 41.6688 106.938C36.0638 98.6776 33.0401 87.8363 35.6951 85.6238C37.5388 84.0751 38.6451 85.6238 39.8251 91.0813C40.9313 96.3176 44.1026 103.471 46.7576 106.569C48.1588 108.265 48.6013 108.486 48.6751 107.528C48.6751 106.864 49.7813 105.389 51.1826 104.283L53.6901 102.218L50.9613 100.226C45.2088 96.0963 40.9313 88.5001 42.4063 85.0338C42.7013 84.2963 43.2176 80.6088 43.5126 76.7738C43.9551 70.0626 44.0288 69.7676 46.6101 67.4076C49.6338 64.6788 52.6576 63.7201 60.3276 63.1301C63.2776 62.9088 66.7438 62.1713 67.9976 61.5076C74.7088 58.0413 82.4526 57.3776 93.5888 59.3688ZM62.0238 78.9126C64.7526 80.3876 63.3513 84.8126 60.1063 84.8126C56.9351 84.8126 55.8288 81.9363 58.0413 79.5026C59.4426 77.9538 60.0326 77.8801 62.0238 78.9126ZM126.998 88.1313C127.661 89.6801 127.588 90.1963 126.481 91.4501C124.195 93.9576 120.95 92.9251 120.95 89.6063C120.95 86.0663 125.523 84.9601 126.998 88.1313ZM109.298 114.091C111.658 116.23 110.478 119.475 107.306 119.475C104.209 119.475 102.955 116.23 105.168 114.018C106.643 112.543 107.601 112.543 109.298 114.091Z" fill="#848586"/>
</svg>
