<svg width="41" height="35" viewBox="0 0 41 35" fill="none" xmlns="http://www.w3.org/2000/svg">
<path d="M2 6.6499L14.7891 13.8963C19.504 16.5678 21.496 16.5678 26.2109 13.8963L39 6.6499" stroke="#141B34" stroke-width="3" stroke-linejoin="round"/>
<path d="M2.02917 20.4798C2.15011 26.151 2.21058 28.9867 4.30317 31.0872C6.39576 33.1877 9.30811 33.2609 15.1328 33.4073C18.7227 33.4975 22.2773 33.4975 25.8672 33.4073C31.6919 33.2609 34.6043 33.1877 36.6968 31.0872C38.7894 28.9867 38.8499 26.151 38.9708 20.4798C39.0097 18.6563 39.0097 16.8435 38.9708 15.02C38.8499 9.34879 38.7894 6.51317 36.6968 4.41263C34.6043 2.31208 31.6919 2.2389 25.8672 2.09255C22.2773 2.00236 18.7227 2.00235 15.1328 2.09254C9.30811 2.23888 6.39575 2.31205 4.30316 4.4126C2.21057 6.51315 2.1501 9.34877 2.02916 15.02C1.99028 16.8435 1.99028 18.6563 2.02917 20.4798Z" stroke="#141B34" stroke-width="3" stroke-linejoin="round"/>
</svg>
