<svg width="153" height="25" viewBox="0 0 153 25" fill="none" xmlns="http://www.w3.org/2000/svg">
<path d="M118.81 12.5399C118.81 22.9784 118.858 24.4626 119.175 24.4626C119.491 24.4626 119.54 23.6597 119.54 18.7446V13.0266H124.893C130.075 13.0266 130.246 13.0022 130.246 12.5399C130.246 12.0776 130.075 12.0533 124.893 12.0533H119.54V6.82189V1.59049L125.428 1.54183C130.83 1.46883 131.341 1.4445 131.414 1.03085C131.487 0.641541 131.073 0.617208 125.16 0.617208H118.81V12.5399Z" fill="#101010"/>
<path d="M135.355 0.738838C135.355 0.787502 137.205 3.4397 139.468 6.60287L143.58 12.3452L139.322 18.3066C135.404 23.7813 134.674 24.9979 135.793 24.3166C136.183 24.049 138.981 20.3018 142.412 15.3868L144.066 13.0022L148.154 18.7446C151.025 22.7837 152.364 24.4626 152.68 24.4626C153.264 24.4626 153.58 24.9736 148.689 18.0876L144.577 12.3452L148.324 7.13818C153.264 0.276529 153.045 0.617178 152.461 0.617178C152.096 0.617178 150.904 2.12577 148.105 6.06756C145.989 9.08474 144.188 11.5423 144.115 11.5423C144.042 11.5423 142.241 9.08474 140.1 6.0919C137.545 2.49075 136.061 0.617178 135.793 0.617178C135.55 0.617178 135.355 0.665842 135.355 0.738838Z" fill="#101010"/>
<path d="M8.80427 1.54185C6.61439 2.27182 4.98414 3.29376 3.49988 4.89968C1.26133 7.25989 0.312378 9.71743 0.312378 13.0509C0.312378 18.1607 3.35389 22.4674 8.24464 24.268C10.3129 25.0223 14.4736 25.0223 16.3959 24.268C20.3863 22.6864 22.5762 19.8882 23.1845 15.5085C23.3062 14.6082 23.3305 13.2699 23.2332 12.54L23.0629 11.2017H17.1015H11.1402V13.3916V15.5815L14.7413 15.5085C18.2208 15.4355 18.3181 15.4598 18.3181 15.9464C18.3181 16.6034 17.4908 18.2337 16.7852 18.8906C15.7389 19.8882 14.425 20.3262 12.3568 20.3262C8.48796 20.3262 6.12775 18.2823 5.39778 14.3649C4.76515 10.9584 6.46839 7.45455 9.36391 6.21362C11.7485 5.19167 15.082 5.65398 16.7852 7.23556L17.3205 7.74654L18.9751 6.33528C19.8754 5.55665 20.6297 4.80235 20.6297 4.68069C20.6297 4.19405 18.1235 2.36915 16.6879 1.80951C14.717 1.05521 10.7508 0.909222 8.80427 1.54185Z" fill="#101010"/>
<path d="M73.041 1.56613C69.9508 2.56374 67.25 4.75363 65.9117 7.38149C62.5539 13.9998 65.5711 21.7374 72.4814 24.268C74.5009 24.9979 78.6617 24.9979 80.6569 24.268C82.3602 23.6597 83.8931 22.6134 84.9881 21.3968C86.7886 19.3285 87.8592 15.6301 87.5429 12.5886L87.3726 11.08L81.3869 11.1286L75.3769 11.2016V13.3915V15.5814L79.0024 15.5084L82.6278 15.4354L82.4819 16.3357C82.2385 17.747 81.2896 18.9636 79.854 19.6935C78.0291 20.5938 75.1822 20.5938 73.3573 19.6935C70.9484 18.5013 69.6102 16.141 69.6102 13.0265C69.6102 8.64676 72.384 5.65392 76.4232 5.65392C78.1994 5.65392 80 6.28655 81.0219 7.2355L81.5572 7.74647L82.7008 6.79752C83.3335 6.28655 84.1121 5.60525 84.4771 5.31327L85.1097 4.80229L84.3068 3.95067C83.3091 2.90439 81.4599 1.88244 79.781 1.44447C78.0291 0.982155 74.6956 1.03082 73.041 1.56613Z" fill="#101010"/>
<path d="M98.4436 1.46887C94.1855 2.61248 90.779 6.23796 89.8787 10.5447C88.3945 17.674 93.4312 24.3167 100.779 24.852C106.595 25.29 111.875 21.4212 113.213 15.7275C113.651 13.8782 113.408 10.3501 112.751 8.67117C111.315 5.09435 108.006 2.1745 104.454 1.37154C102.921 1.00656 99.9522 1.07956 98.4436 1.46887ZM104.624 6.26229C107.544 7.62489 109.15 11.445 108.249 14.9245C107.349 18.5013 105.086 20.3019 101.509 20.3262C97.5433 20.3506 94.7208 17.3334 94.7208 13.0753C94.7208 11.007 95.0128 9.96077 96.0104 8.50084C97.7867 5.82432 101.607 4.85103 104.624 6.26229Z" fill="#101010"/>
<path d="M27.3453 12.7346C24.7904 18.9879 22.6979 24.195 22.6979 24.2923C22.6979 24.3896 23.8658 24.4383 25.2771 24.414L27.8563 24.341L28.6106 22.2727L29.3892 20.2045H34.0123H38.6111L39.3897 22.2727L40.144 24.341L42.7232 24.414C44.1588 24.4383 45.3267 24.414 45.3267 24.341C45.3267 24.268 43.2828 19.1826 40.8009 13.0752C38.3191 6.96787 36.2265 1.80947 36.1535 1.63915C36.0562 1.44449 35.3992 1.34716 34.0123 1.34716H32.0171L27.3453 12.7346ZM35.7399 12.6372L36.9565 15.8247L35.5695 15.8977C34.7909 15.9464 33.4527 15.9464 32.601 15.8977L31.0438 15.8247L32.528 11.9559C33.915 8.37913 34.0366 8.13581 34.2556 8.76845C34.4016 9.15776 35.0586 10.8853 35.7399 12.6372Z" fill="#101010"/>
<path d="M47.2002 1.51758C47.1029 1.59057 47.0299 6.79764 47.0299 13.0753V24.4871L49.4145 24.4141L51.7747 24.3411L51.8477 20.01C51.872 17.6254 51.9937 15.7032 52.1153 15.7518C52.237 15.8005 53.6239 17.7714 55.1812 20.1316L58.0523 24.4627H60.8262C63.2594 24.4627 63.6001 24.4141 63.4784 24.0734C63.4054 23.8788 62.0671 21.8592 60.5099 19.5963C58.9526 17.3334 57.6874 15.4112 57.7117 15.2895C57.736 15.1922 58.1497 14.9489 58.685 14.7786C59.1959 14.6082 60.0719 14.0973 60.6072 13.635C63.3081 11.2991 63.5757 6.55432 61.1182 3.90212C59.3176 1.95556 56.9331 1.37159 50.777 1.34725C48.9035 1.34725 47.2732 1.42025 47.2002 1.51758ZM56.5438 6.35966C57.4197 6.79764 58.0523 8.1359 57.8334 9.08486C57.4684 10.5691 55.9111 11.3234 53.1129 11.3234H51.8963V8.64688V5.97035H53.8429C55.1568 5.97035 56.0571 6.09201 56.5438 6.35966Z" fill="#101010"/>
</svg>
