<svg width="107" height="18" viewBox="0 0 107 18" fill="none" xmlns="http://www.w3.org/2000/svg">
<path d="M82.5066 8.85282C82.5066 16.1208 82.5405 17.1543 82.7607 17.1543C82.9809 17.1543 83.0148 16.5952 83.0148 13.173V9.19166H86.742C90.3506 9.19166 90.4692 9.17472 90.4692 8.85282C90.4692 8.53093 90.3506 8.51399 86.742 8.51399H83.0148V4.8715V1.22902L87.1147 1.19513C90.8758 1.14431 91.2316 1.12737 91.2824 0.839355C91.3332 0.568287 91.0452 0.551346 86.9284 0.551346H82.5066V8.85282Z" fill="white"/>
<path d="M94.0268 0.635763C94.0268 0.669647 95.3144 2.5163 96.89 4.71873L99.7532 8.717L96.7884 12.8677C94.0607 16.6796 93.5525 17.5267 94.3318 17.0524C94.6029 16.866 96.5512 14.257 98.94 10.8347L100.092 9.17442L102.938 13.1727C104.937 15.985 105.869 17.154 106.089 17.154C106.496 17.154 106.716 17.5098 103.311 12.7153L100.448 8.717L103.057 5.09145C106.496 0.313869 106.344 0.551054 105.937 0.551054C105.683 0.551054 104.853 1.60144 102.904 4.34601C101.43 6.4468 100.177 8.15792 100.126 8.15792C100.075 8.15792 98.8214 6.4468 97.3305 4.36296C95.5516 1.85557 94.5182 0.551054 94.3318 0.551054C94.1624 0.551054 94.0268 0.584938 94.0268 0.635763Z" fill="white"/>
<path d="M5.91268 1.19458C4.38792 1.70284 3.25282 2.41439 2.21937 3.53255C0.66073 5.1759 0 6.88702 0 9.20805C0 12.7658 2.11772 15.7645 5.52302 17.0182C6.96307 17.5434 9.86012 17.5434 11.1985 17.0182C13.977 15.917 15.5017 13.9687 15.9253 10.9192C16.01 10.2923 16.0269 9.36053 15.9592 8.85227L15.8406 7.92047H11.6898H7.53909V9.44523V10.97L10.0465 10.9192C12.4692 10.8683 12.5369 10.8853 12.5369 11.2241C12.5369 11.6815 11.9609 12.8166 11.4696 13.2741C10.7411 13.9687 9.82624 14.2736 8.38618 14.2736C5.69244 14.2736 4.04909 12.8505 3.54083 10.1229C3.10035 7.75105 4.28627 5.31144 6.30234 4.44741C7.96264 3.73585 10.2837 4.05774 11.4696 5.15896L11.8423 5.51474L12.9943 4.53211C13.6212 3.98998 14.1464 3.46478 14.1464 3.38007C14.1464 3.04124 12.4014 1.7706 11.4018 1.38094C10.0295 0.855747 7.26803 0.754097 5.91268 1.19458Z" fill="white"/>
<path d="M50.639 1.21251C48.4874 1.90712 46.6069 3.43188 45.6751 5.2616C43.3371 9.86977 45.4379 15.2573 50.2494 17.0192C51.6555 17.5275 54.5526 17.5275 55.9418 17.0192C57.1277 16.5957 58.1951 15.8672 58.9574 15.0201C60.2111 13.58 60.9566 11.0049 60.7363 8.88714L60.6177 7.83675L56.4501 7.87063L52.2654 7.92146V9.44622V10.971L54.7898 10.9202L57.3141 10.8693L57.2124 11.4962C57.043 12.4788 56.3823 13.3259 55.3827 13.8341C54.1121 14.461 52.1299 14.461 50.8593 13.8341C49.182 13.004 48.2502 11.3606 48.2502 9.19209C48.2502 6.14257 50.1816 4.05873 52.9939 4.05873C54.2307 4.05873 55.4844 4.49922 56.1959 5.15995L56.5687 5.51573L57.3649 4.855C57.8054 4.49922 58.3475 4.02485 58.6017 3.82155L59.0422 3.46577L58.4831 2.87281C57.7885 2.14431 56.5009 1.43275 55.3319 1.1278C54.1121 0.805908 51.7911 0.839792 50.639 1.21251Z" fill="white"/>
<path d="M68.3262 1.14467C65.3614 1.94093 62.9895 4.46526 62.3627 7.46395C61.3292 12.4279 64.8362 17.053 69.9526 17.4257C74.0017 17.7307 77.6781 15.0369 78.6099 11.0726C78.9148 9.78498 78.7454 7.32842 78.288 6.15944C77.2884 3.66899 74.9843 1.63598 72.5108 1.0769C71.4435 0.822773 69.3766 0.873598 68.3262 1.14467ZM72.6294 4.4822C74.6624 5.43094 75.7806 8.0908 75.1537 10.5135C74.5269 13.0039 72.9513 14.2576 70.4609 14.2746C67.6994 14.2915 65.7341 12.1907 65.7341 9.2259C65.7341 7.78585 65.9374 7.05735 66.632 6.04084C67.8688 4.17725 70.5286 3.49958 72.6294 4.4822Z" fill="white"/>
<path d="M18.8223 8.98854C17.0434 13.3426 15.5864 16.9681 15.5864 17.0359C15.5864 17.1037 16.3996 17.1375 17.3823 17.1206L19.1781 17.0698L19.7033 15.6297L20.2454 14.1897H23.4644H26.6664L27.2085 15.6297L27.7337 17.0698L29.5295 17.1206C30.5291 17.1375 31.3423 17.1206 31.3423 17.0698C31.3423 17.0189 29.9192 13.4781 28.1911 9.22573C26.4631 4.97334 25.0061 1.38168 24.9552 1.26309C24.8875 1.12755 24.43 1.05979 23.4644 1.05979H22.0751L18.8223 8.98854ZM24.6672 8.92077L25.5143 11.1401L24.5486 11.191C24.0065 11.2249 23.0747 11.2249 22.4817 11.191L21.3975 11.1401L22.4309 8.4464C23.3966 5.95596 23.4813 5.78654 23.6338 6.22703C23.7354 6.4981 24.1929 7.70097 24.6672 8.92077Z" fill="white"/>
<path d="M32.6468 1.17883C32.579 1.22965 32.5282 4.8552 32.5282 9.22618V17.1719L34.1885 17.121L35.8318 17.0702L35.8827 14.0546C35.8996 12.3943 35.9843 11.0559 36.069 11.0898C36.1537 11.1237 37.1194 12.4959 38.2037 14.1393L40.2028 17.1549H42.1342C43.8284 17.1549 44.0655 17.121 43.9808 16.8839C43.93 16.7483 42.9982 15.3422 41.9139 13.7666C40.8297 12.191 39.9487 10.8526 39.9656 10.7679C39.9826 10.7001 40.2706 10.5307 40.6433 10.4121C40.9991 10.2935 41.609 9.93773 41.9817 9.61584C43.8622 7.98943 44.0486 4.68578 42.3375 2.83912C41.0838 1.48378 39.4235 1.07718 35.1372 1.06024C33.8327 1.06024 32.6976 1.11106 32.6468 1.17883ZM39.1524 4.55024C39.7623 4.8552 40.2028 5.78699 40.0503 6.44772C39.7962 7.48117 38.7119 8.00637 36.7636 8.00637H35.9165V6.14277V4.27918H37.2719C38.1867 4.27918 38.8136 4.36388 39.1524 4.55024Z" fill="white"/>
</svg>
