<svg width="34" height="34" viewBox="0 0 34 34" fill="none" xmlns="http://www.w3.org/2000/svg">
<path d="M12.2638 6.27038L11.5927 4.76042C11.1539 3.77313 10.9345 3.27947 10.6063 2.90169C10.1951 2.42824 9.65911 2.0799 9.05946 1.89641C8.58097 1.75 8.04076 1.75 6.96035 1.75C5.37984 1.75 4.58959 1.75 3.92621 2.05382C3.14478 2.4117 2.43905 3.1888 2.15788 4.001C1.91918 4.69049 1.98756 5.39905 2.1243 6.81616C3.57984 21.9003 11.8497 30.1702 26.9338 31.6257C28.351 31.7624 29.0595 31.8308 29.749 31.5921C30.5612 31.3109 31.3383 30.6052 31.6962 29.8238C32 29.1604 32 28.3702 32 26.7897C32 25.7092 32 25.169 31.8536 24.6905C31.6701 24.0909 31.3218 23.5549 30.8483 23.1437C30.4705 22.8155 29.9769 22.5961 28.9896 22.1573L27.4796 21.4862C26.4104 21.011 25.8758 20.7734 25.3325 20.7218C24.8127 20.6723 24.2884 20.7453 23.8018 20.9348C23.2933 21.1328 22.8439 21.5073 21.945 22.2564C21.0502 23.002 20.6029 23.3748 20.0562 23.5745C19.5716 23.7515 18.9309 23.8171 18.4205 23.7419C17.8448 23.657 17.4039 23.4214 16.5221 22.9502C13.7787 21.4841 12.2659 19.9713 10.7998 17.2279C10.3286 16.3461 10.093 15.9052 10.0081 15.3295C9.9329 14.8191 9.99846 14.1784 10.1755 13.6938C10.3752 13.1471 10.748 12.6998 11.4936 11.805C12.2427 10.9061 12.6172 10.4567 12.8152 9.94819C13.0047 9.46157 13.0777 8.93733 13.0282 8.41746C12.9766 7.8742 12.739 7.3396 12.2638 6.27038Z" stroke="#141B34" stroke-width="3" stroke-linecap="round"/>
</svg>
