<svg width="48" height="49" viewBox="0 0 48 49" fill="none" xmlns="http://www.w3.org/2000/svg">
<g clip-path="url(#clip0_37_42)">
<path d="M24 0.75C10.7453 0.75 0 11.4953 0 24.75C0 36.005 7.74912 45.4495 18.2026 48.0434V32.0844H13.2538V24.75H18.2026V21.5897C18.2026 13.421 21.8995 9.6348 29.9194 9.6348C31.44 9.6348 34.0637 9.93336 35.137 10.231V16.879C34.5706 16.8194 33.5866 16.7897 32.3645 16.7897C28.4294 16.7897 26.9088 18.2806 26.9088 22.1561V24.75H34.7482L33.4013 32.0844H26.9088V48.5743C38.7926 47.1391 48.001 37.0207 48.001 24.75C48 11.4953 37.2547 0.75 24 0.75Z" fill="#1E1E1E"/>
</g>
<defs>
<clipPath id="clip0_37_42">
<rect width="48" height="48" fill="white" transform="translate(0 0.75)"/>
</clipPath>
</defs>
</svg>
