<svg width="48" height="49" viewBox="0 0 48 49" fill="none" xmlns="http://www.w3.org/2000/svg">
<g clip-path="url(#clip0_37_43)">
<path d="M24 5.07187C17.5875 5.07187 16.8281 5.1 14.3062 5.2125C11.9625 5.31562 10.6969 5.70938 9.85312 6.0375C8.7375 6.46875 7.93125 6.99375 7.09687 7.82812C6.25312 8.67188 5.7375 9.46875 5.30625 10.5844C4.97812 11.4281 4.58437 12.7031 4.48125 15.0375C4.36875 17.5687 4.34062 18.3281 4.34062 24.7313C4.34062 31.1438 4.36875 31.9031 4.48125 34.425C4.58437 36.7688 4.97812 38.0344 5.30625 38.8781C5.7375 39.9938 6.2625 40.8 7.09687 41.6344C7.94062 42.4781 8.7375 42.9938 9.85312 43.425C10.6969 43.7531 11.9719 44.1469 14.3062 44.25C16.8375 44.3625 17.5969 44.3906 24 44.3906C30.4125 44.3906 31.1719 44.3625 33.6937 44.25C36.0375 44.1469 37.3031 43.7531 38.1469 43.425C39.2625 42.9938 40.0687 42.4688 40.9031 41.6344C41.7469 40.7906 42.2625 39.9938 42.6937 38.8781C43.0219 38.0344 43.4156 36.7594 43.5187 34.425C43.6312 31.8938 43.6594 31.1344 43.6594 24.7313C43.6594 18.3188 43.6312 17.5594 43.5187 15.0375C43.4156 12.6937 43.0219 11.4281 42.6937 10.5844C42.2625 9.46875 41.7375 8.6625 40.9031 7.82812C40.0594 6.98438 39.2625 6.46875 38.1469 6.0375C37.3031 5.70938 36.0281 5.31562 33.6937 5.2125C31.1719 5.1 30.4125 5.07187 24 5.07187ZM24 0.75C30.5156 0.75 31.3312 0.778125 33.8906 0.890625C36.4406 1.00313 38.1937 1.41562 39.7125 2.00625C41.2969 2.625 42.6375 3.44062 43.9687 4.78125C45.3094 6.1125 46.125 7.45313 46.7437 9.02813C47.3344 10.5563 47.7469 12.3 47.8594 14.85C47.9719 17.4187 48 18.2344 48 24.75C48 31.2656 47.9719 32.0812 47.8594 34.6406C47.7469 37.1906 47.3344 38.9438 46.7437 40.4625C46.125 42.0469 45.3094 43.3875 43.9687 44.7188C42.6375 46.05 41.2969 46.875 39.7219 47.4844C38.1937 48.075 36.45 48.4875 33.9 48.6C31.3406 48.7125 30.525 48.7406 24.0094 48.7406C17.4937 48.7406 16.6781 48.7125 14.1187 48.6C11.5687 48.4875 9.81562 48.075 8.29687 47.4844C6.72187 46.875 5.38125 46.05 4.05 44.7188C2.71875 43.3875 1.89375 42.0469 1.28437 40.4719C0.693748 38.9438 0.281246 37.2 0.168747 34.65C0.0562477 32.0906 0.0281219 31.275 0.0281219 24.7594C0.0281219 18.2438 0.0562477 17.4281 0.168747 14.8688C0.281246 12.3188 0.693748 10.5656 1.28437 9.04688C1.875 7.45312 2.69062 6.1125 4.03125 4.78125C5.3625 3.45 6.70312 2.625 8.27812 2.01562C9.80625 1.425 11.55 1.0125 14.1 0.9C16.6687 0.778125 17.4844 0.75 24 0.75Z" fill="#1E1E1E"/>
<path d="M24 12.4219C30.8062 12.4219 36.3281 17.9438 36.3281 24.75C36.3281 31.5562 30.8062 37.0781 24 37.0781C17.1938 37.0781 11.6719 31.5562 11.6719 24.75C11.6719 17.9438 17.1938 12.4219 24 12.4219ZM24 32.7469C28.4156 32.7469 31.9969 29.1656 31.9969 24.75C31.9969 20.3344 28.4156 16.7531 24 16.7531C19.5844 16.7531 16.0031 20.3344 16.0031 24.75C16.0031 29.1656 19.5844 32.7469 24 32.7469Z" fill="#1E1E1E"/>
<path d="M8.30625 11.9343C8.30625 13.528 9.6 14.8124 11.1844 14.8124C12.7781 14.8124 14.0625 13.5187 14.0625 11.9343C14.0625 10.3405 12.7687 9.05615 11.1844 9.05615C9.6 9.05615 8.30625 10.3499 8.30625 11.9343Z" fill="#1E1E1E"/>
</g>
<defs>
<clipPath id="clip0_37_43">
<rect width="48" height="48" fill="white" transform="matrix(-1 0 0 1 48 0.75)"/>
</clipPath>
</defs>
</svg>
